<?xml version="1.0" encoding="utf-8"?>
<!-- Generator: Adobe Illustrator 18.0.0, SVG Export Plug-In . SVG Version: 6.00 Build 0)  -->
<!DOCTYPE svg PUBLIC "-//W3C//DTD SVG 1.1//EN" "http://www.w3.org/Graphics/SVG/1.1/DTD/svg11.dtd">
<svg version="1.1" xmlns="http://www.w3.org/2000/svg" xmlns:xlink="http://www.w3.org/1999/xlink" x="0px" y="0px"
	 viewBox="0 0 960 560" enable-background="new 0 0 960 560" xml:space="preserve">
<g id="home_x5F_page">
	<rect id="background_1_" fill="#81C784" stroke="#000000" stroke-miterlimit="10" width="960" height="560"/>
	<g id="back_x5F_button_x5F_home">
		<rect x="858.167" y="34.667" fill="#E6EE9C" width="76.667" height="40.333"/>
		<g id="back">
			<path d="M871.446,42.861h1.549v9.682h0.052c0.955-1.652,2.995-2.401,4.776-2.401c3.666,0,6.273,2.633,6.273,6.274
				c0,3.64-2.607,6.273-6.273,6.273c-1.781,0-3.821-0.749-4.776-2.401h-0.052v2.091h-1.549V42.861z M877.823,61.295
				c2.918,0,4.725-2.194,4.725-4.879s-1.807-4.88-4.725-4.88c-2.814,0-4.982,2.195-4.982,4.88S875.009,61.295,877.823,61.295z"/>
			<path d="M896.827,57.371c0,2.324,0.051,3.641,0.231,5.009h-1.445c-0.104-0.594-0.155-1.265-0.155-1.937h-0.052
				c-0.877,1.523-2.168,2.246-4.182,2.246c-2.04,0-4.209-1.007-4.209-3.537c0-3.641,4.26-4.002,6.609-4.002h1.808v-0.723
				c0-2.065-1.446-2.892-3.356-2.892c-1.395,0-2.582,0.439-3.641,1.343l-0.903-1.059c1.136-1.084,2.995-1.678,4.544-1.678
				c2.892,0,4.751,1.291,4.751,4.312V57.371z M893.729,56.39c-2.582,0-5.163,0.646-5.163,2.685c0,1.472,1.42,2.22,2.71,2.22
				c3.305,0,4.157-2.117,4.157-4.105v-0.8H893.729z"/>
			<path d="M910.949,60.624c-1.161,1.395-2.685,2.065-4.389,2.065c-3.666,0-6.273-2.633-6.273-6.273
				c0-3.641,2.607-6.274,6.273-6.274c1.729,0,3.279,0.749,4.44,2.065l-1.239,0.93c-0.903-0.981-1.962-1.601-3.201-1.601
				c-2.918,0-4.725,2.195-4.725,4.88s1.807,4.879,4.725,4.879c1.291,0,2.401-0.671,3.201-1.652L910.949,60.624z"/>
			<path d="M913.377,42.861h1.549v13.013l5.887-5.396h2.271l-6.145,5.447l6.868,6.455h-2.35l-6.532-6.3v6.3h-1.549V42.861z"/>
		</g>
	</g>
	<g id="Home">
		<path d="M46.224,34.485h2.6v12.292h15.602V34.485h2.601v27.894h-2.601V49.142H48.824v13.238h-2.6V34.485z"/>
		<path d="M82.547,43.705c5.595,0,9.574,4.019,9.574,9.574s-3.979,9.574-9.574,9.574c-5.594,0-9.574-4.019-9.574-9.574
			S76.953,43.705,82.547,43.705z M82.547,60.725c4.452,0,7.21-3.349,7.21-7.446c0-4.097-2.758-7.446-7.21-7.446
			c-4.452,0-7.21,3.349-7.21,7.446C75.337,57.376,78.096,60.725,82.547,60.725z"/>
		<path d="M97.399,49.299c0-1.34-0.197-4.176-0.197-5.122h2.364c0.04,1.34,0.079,2.837,0.158,3.191h0.118
			c0.945-2.009,3.27-3.664,6.225-3.664c2.403,0,4.61,1.182,5.477,3.94c1.143-2.719,3.664-3.94,6.186-3.94
			c5.673,0,6.934,3.861,6.934,7.84v10.834h-2.364V51.663c0-2.955-0.828-5.831-4.57-5.831c-4.374,0-5.516,3.704-5.516,6.304v10.244
			h-2.364V51.427c0-3.349-1.221-5.595-3.782-5.595c-3.506,0-6.304,2.443-6.304,7.446v9.101h-2.364V49.299z"/>
		<path d="M147.039,58.952c-1.852,2.758-4.649,3.9-7.88,3.9c-5.555,0-9.219-3.979-9.219-9.613c0-5.437,3.782-9.534,9.101-9.534
			c5.595,0,8.549,4.294,8.549,8.51v1.655h-15.287c0,1.97,1.379,6.855,6.895,6.855c2.403,0,4.925-1.261,6.106-3.23L147.039,58.952z
			 M145.227,51.742c0-3.23-2.797-5.91-6.304-5.91c-5.161,0-6.619,4.964-6.619,5.91H145.227z"/>
	</g>
</g>
<g id="start_x5F_page">
	<rect id="background" fill="#81C784" stroke="#000000" stroke-miterlimit="10" width="960" height="560"/>
	<g id="button">
		<rect x="402.672" y="252.935" fill="#A5D6A7" width="154.657" height="54.13"/>
		<g>
			<path d="M439.782,287.764c1.128,2.212,3.611,3.431,6.048,3.431c2.347,0,4.784-1.444,4.784-3.837
				c0-5.732-12.367-1.715-12.367-9.659c0-4.062,3.701-6.003,7.131-6.003c3.385,0,6.003,1.264,7.357,3.927l-2.438,1.444
				c-1.038-1.896-2.482-2.934-4.919-2.934c-1.941,0-4.423,1.174-4.423,3.34c0,5.642,12.367,1.264,12.367,9.704
				c0,4.288-3.566,6.455-7.538,6.455c-3.566,0-6.771-1.354-8.396-4.243L439.782,287.764z"/>
			<path d="M469.167,274.675h-5.958v13.586c0,1.851,1.083,2.934,2.889,2.934c1.038,0,2.122-0.316,3.069-0.723l0.226,2.438
				c-0.993,0.361-2.482,0.723-3.521,0.723c-3.882,0-5.371-2.393-5.371-5.371v-13.586h-4.514v-2.438h4.514v-6.003h2.708v6.003h5.958
				V274.675z"/>
			<path d="M490.2,284.334c0,4.062,0.09,6.363,0.405,8.756h-2.527c-0.181-1.038-0.271-2.212-0.271-3.385h-0.091
				c-1.534,2.662-3.791,3.927-7.312,3.927c-3.565,0-7.357-1.761-7.357-6.184c0-6.364,7.447-6.996,11.554-6.996h3.16v-1.264
				c0-3.611-2.528-5.055-5.868-5.055c-2.437,0-4.513,0.768-6.364,2.347l-1.58-1.851c1.986-1.896,5.235-2.934,7.943-2.934
				c5.056,0,8.306,2.256,8.306,7.538V284.334z M484.783,282.618c-4.513,0-9.027,1.129-9.027,4.694c0,2.572,2.482,3.882,4.739,3.882
				c5.778,0,7.267-3.701,7.267-7.177v-1.399H484.783z"/>
			<path d="M497.422,278.105c0-1.535-0.226-4.785-0.226-5.868h2.709c0.045,1.535,0.09,3.25,0.18,3.656
				c1.354-2.437,3.521-4.197,6.636-4.197c0.541,0,1.038,0.09,1.579,0.226l-0.315,2.663c-0.406-0.136-0.768-0.181-1.038-0.181
				c-4.694,0-6.815,3.25-6.815,7.312v11.374h-2.709V278.105z"/>
			<path d="M522.653,274.675h-5.958v13.586c0,1.851,1.083,2.934,2.889,2.934c1.038,0,2.121-0.316,3.069-0.723l0.226,2.438
				c-0.993,0.361-2.482,0.723-3.521,0.723c-3.882,0-5.371-2.393-5.371-5.371v-13.586h-4.514v-2.438h4.514v-6.003h2.708v6.003h5.958
				V274.675z"/>
		</g>
	</g>
</g>
</svg>
